HIERARCHY
ROOT Bip001_Pelvis
{
  OFFSET 34.4345 95.6767 -26.8758
  CHANNELS 6 Xposition Yposition Zposition Zrotation Xrotation Yrotation
  JOINT Bip001_Spine
  {
    OFFSET 1.4188e-005 10.2191 -0.0116013
    CHANNELS 3 Zrotation Xrotation Yrotation
    JOINT Bip001_L_Thigh
    {
      OFFSET 11.0458 -10.2192 0.0116197
      CHANNELS 3 Zrotation Xrotation Yrotation
      JOINT Bip001_L_Calf
      {
        OFFSET -0.707118 -44.0221 0.360014
        CHANNELS 3 Zrotation Xrotation Yrotation
        JOINT Bip001_L_Foot
        {
          OFFSET -0.651902 -40.5938 -3.56146
          CHANNELS 3 Zrotation Xrotation Yrotation
          JOINT Bip001_L_Toe0
          {
            OFFSET 0.0530839 -10.2181 13.1504
            CHANNELS 3 Zrotation Xrotation Yrotation
            End Site
            {
              OFFSET -1.02532e-005 0 7.55606
            }
          }
        }
      }
    }
    JOINT Bip001_R_Thigh
    {
      OFFSET -11.0458 -10.2191 0.0115893
      CHANNELS 3 Zrotation Xrotation Yrotation
      JOINT Bip001_R_Calf
      {
        OFFSET 0.706994 -44.0221 0.35984
        CHANNELS 3 Zrotation Xrotation Yrotation
        JOINT Bip001_R_Foot
        {
          OFFSET 0.651786 -40.5938 -3.5613
          CHANNELS 3 Zrotation Xrotation Yrotation
          JOINT Bip001_R_Toe0
          {
            OFFSET -0.0531479 -10.2181 13.1504
            CHANNELS 3 Zrotation Xrotation Yrotation
            End Site
            {
              OFFSET -1.02894e-005 0 7.55606
            }
          }
        }
      }
    }
    JOINT Bip001_Spine1
    {
      OFFSET 1.87041e-005 14.5736 1.08638
      CHANNELS 3 Zrotation Xrotation Yrotation
      JOINT Bip001_Spine2
      {
        OFFSET 2.24614e-005 14.5058 -1.69078
        CHANNELS 3 Zrotation Xrotation Yrotation
        JOINT Bip001_Neck
        {
          OFFSET 2.20278e-005 15.3945 -0.489414
          CHANNELS 3 Zrotation Xrotation Yrotation
          JOINT Bip001_L_Clavicle
          {
            OFFSET 6.06036 -0.000579998 0.00836775
            CHANNELS 3 Zrotation Xrotation Yrotation
            JOINT Bip001_L_UpperArm
            {
              OFFSET 11.5509 -0.0600302 0.00193952
              CHANNELS 3 Zrotation Xrotation Yrotation
              JOINT Bip001_L_Forearm
              {
                OFFSET 25.9523 0.0806089 -2.15551
                CHANNELS 3 Zrotation Xrotation Yrotation
                JOINT Bip001_L_Hand
                {
                  OFFSET 32.2475 0.153767 1.63968
                  CHANNELS 3 Zrotation Xrotation Yrotation
                  JOINT Bip001_L_Finger0
                  {
                    OFFSET 6.04639 -2.20976 5.90322
                    CHANNELS 3 Zrotation Xrotation Yrotation
                    End Site
                    {
                      OFFSET 4.22375 -1.43895 0.606485
                    }
                  }
                  JOINT Bip001_L_Finger1
                  {
                    OFFSET 11.0826 -0.704819 -0.198153
                    CHANNELS 3 Zrotation Xrotation Yrotation
                    End Site
                    {
                      OFFSET 6.20027 -0.397518 -0.0787166
                    }
                  }
                }
              }
            }
          }
          JOINT Bip001_R_Clavicle
          {
            OFFSET -6.06037 -0.000563197 0.00835105
            CHANNELS 3 Zrotation Xrotation Yrotation
            JOINT Bip001_R_UpperArm
            {
              OFFSET -11.5509 -0.0599978 0.00190698
              CHANNELS 3 Zrotation Xrotation Yrotation
              JOINT Bip001_R_Forearm
              {
                OFFSET -25.9523 0.0806822 -2.15589
                CHANNELS 3 Zrotation Xrotation Yrotation
                JOINT Bip001_R_Hand
                {
                  OFFSET -32.2475 0.153859 1.63989
                  CHANNELS 3 Zrotation Xrotation Yrotation
                  JOINT Bip001_R_Finger0
                  {
                    OFFSET -6.04641 -2.20976 5.90317
                    CHANNELS 3 Zrotation Xrotation Yrotation
                    End Site
                    {
                      OFFSET -4.22376 -1.43895 0.60647
                    }
                  }
                  JOINT Bip001_R_Finger1
                  {
                    OFFSET -11.0826 -0.704794 -0.198182
                    CHANNELS 3 Zrotation Xrotation Yrotation
                    End Site
                    {
                      OFFSET -6.20028 -0.397504 -0.0787333
                    }
                  }
                }
              }
            }
          }
          JOINT Bip001_Head
          {
            OFFSET 1.09673e-005 11.2744 2.05948
            CHANNELS 3 Zrotation Xrotation Yrotation
            End Site
            {
              OFFSET 2.89576e-005 20.8808 -2.77728e-005
            }
          }
        }
      }
    }
  }
}
MOTION
Frames:	5
Frame Time:	0.04
34.3515 94.0158 -32.4048 -1.513 -4.87671 -16.9991 0.510779 3.27956 -1.88558 6.74207 -1.77192 16.9045 -2.79021 19.8067 10.0689 5.72944 -8.36357 0.189613 1.71759 -7.95108 -0.188599 -4.16915 -10.9201 7.6728 -0.833558 22.583 4.49795 -7.2168 -11.0598 2.86047 3.29851 -11.0653 3.87884 1.13232 6.54034 -3.80977 1.13232 6.54036 -3.80978 4.57238 -4.96475 6.06711 -23.5511 9.48533 -9.57907 -45.7277 37.5213 -5.01781 20.3638 0.543123 -40.6938 9.81786 -0.941609 -9.71696 6.36111e-015 -3.18055e-015 -2.38542e-015 9.54166e-015 -2.38542e-015 -3.18055e-015 24.7388 7.74114 5.40719 66.8335 14.7262 -15.2285 -25.8794 11.7417 15.1749 -26.7041 -11.2722 3.41588 -7.35503e-015 0 -1.59028e-015 -4.96962e-015 -3.18056e-015 -1.59028e-015 -4.32873 -6.52665 7.84118 
35.1722 93.3549 -32.2601 -1.55253 -5.75526 -18.3041 0.563254 3.52643 -2.02947 6.77288 -2.16196 16.5817 -4.65588 22.7497 12.3767 7.10812 -10.0706 0.336035 1.9968 -8.37906 -0.297605 -4.70807 -12.3387 8.4567 -0.919537 25.9595 4.57646 -7.61278 -12.3692 3.43527 3.57281 -11.8144 4.10434 1.25974 7.03042 -4.10529 1.25613 7.03043 -4.10536 4.39736 -4.36968 7.12794 -23.2204 9.30711 -10.6749 -45.5337 38.2099 -4.28855 20.5635 1.04845 -42.261 9.46634 -0.500921 -9.52928 -6.36111e-015 0 5.56597e-015 -3.18055e-015 1.59028e-015 6.36111e-015 24.2538 6.39233 3.71707 69.007 14.7701 -16.7416 -24.2702 8.11275 14.0216 -26.4413 -10.8022 2.27864 -5.24294e-015 7.95139e-016 3.97569e-016 -7.00716e-015 7.95139e-016 3.97569e-016 -4.45135 -7.02913 8.87771 
36.1328 92.4171 -32.0512 -1.85451 -7.16464 -19.7443 0.577697 3.86616 -2.21095 7.20945 -2.45814 15.9155 -7.59443 26.6841 15.9777 8.09446 -12.7872 0.57126 2.32342 -8.38534 -0.520194 -5.2813 -13.6724 9.63598 -0.622278 30.1442 5.19608 -8.30854 -13.9465 3.46835 3.90779 -12.4474 3.98731 1.308 7.70667 -4.47735 1.30816 7.7067 -4.47662 4.71023 -3.13351 8.25354 -23.346 8.61442 -12.1111 -45.209 39.0463 -3.0967 21.0241 1.67967 -43.5534 8.40188 -0.430657 -9.54816 -6.36111e-015 -3.18055e-015 -4.77083e-015 -9.54166e-015 -1.59028e-015 -4.77083e-015 23.0276 4.2916 1.45825 71.1034 15.1252 -18.268 -23.8944 4.16767 13.9141 -25.875 -10.564 1.72498 7.83957e-015 3.97569e-016 -7.95139e-016 1.19271e-014 0 -1.59028e-015 -4.97047 -8.30471 10.1891 
37.1773 91.3667 -31.7009 -1.8635 -8.80006 -20.9773 0.445927 4.20666 -2.41365 6.77022 -2.5602 16.637 -9.0187 30.235 17.3084 9.91421 -14.5417 0.835718 2.34521 -8.88143 -0.333964 -6.24649 -14.9684 10.2299 -0.529066 34.4822 5.49446 -8.83669 -15.8564 3.98351 4.21292 -13.2306 4.22718 1.07397 8.39052 -4.87986 1.07398 8.39056 -4.8799 5.34611 -1.82023 9.31027 -23.8513 7.87236 -13.4483 -44.7171 40.3242 -1.85636 20.9965 1.69882 -43.7871 8.66362 -0.544411 -9.37598 6.36111e-015 -4.77083e-015 1.59028e-015 6.36111e-015 -3.18056e-015 -0 21.7383 2.16605 -0.975105 71.5501 15.382 -18.7516 -23.807 2.50701 14.4974 -26.1703 -10.6895 1.99221 -5.2181e-015 1.19271e-015 -0 -2.98177e-015 3.97569e-016 7.95139e-016 -5.65023 -9.69747 11.5562 
38.1204 90.2885 -31.3183 -2.12066 -9.93327 -22.306 0.33959 4.47662 -2.56315 6.47894 -3.05993 17.8873 -9.59965 33.9254 18.1808 11.6492 -15.891 1.11607 2.36134 -9.47143 -0.198438 -6.38565 -16.2565 11.2415 -1.16189 38.2738 6.42424 -9.52808 -17.3136 3.84342 4.57609 -14.1133 4.46025 0.884428 8.93335 -5.17671 0.884428 8.93336 -5.17671 5.86522 -0.175904 10.3756 -24.1364 6.89437 -15.3062 -44.8059 41.888 -0.330611 20.6627 1.29055 -42.6211 9.04872 -0.322675 -9.09702 -1.27222e-014 0 3.18055e-015 -1.27222e-014 3.18056e-015 3.18055e-015 21.0193 -0.0401458 -2.59641 70.9336 16.1956 -18.8608 -24.3576 3.13999 15.1667 -27.4833 -10.4992 2.24198 7.40473e-015 0 1.59028e-015 6.16232e-015 -3.97569e-016 1.59028e-015 -6.21923 -11.8937 12.8931 
